<?xml version="1.0" encoding="UTF-8"?>
<!DOCTYPE svg PUBLIC "-//W3C//DTD SVG 1.1//EN" "http://www.w3.org/Graphics/SVG/1.1/DTD/svg11.dtd">
<svg xmlns="http://www.w3.org/2000/svg" version="1.1" width="395px" height="67px" style="shape-rendering:geometricPrecision; text-rendering:geometricPrecision; image-rendering:optimizeQuality; fill-rule:evenodd; clip-rule:evenodd" xmlns:xlink="http://www.w3.org/1999/xlink">
<g><path style="opacity:1" fill="#f66e21" d="M 80.5,15.5 C 80.6621,13.4727 80.4955,11.4727 80,9.5C 78.5315,10.9893 77.0315,12.3226 75.5,13.5C 73.1582,13.2252 73.1582,12.3919 75.5,11C 74.0953,9.73082 72.4286,9.23082 70.5,9.5C 69.2822,12.5531 68.2822,15.7197 67.5,19C 67.6448,19.772 67.9781,20.4387 68.5,21C 65.9014,23.7509 63.5681,26.5842 61.5,29.5C 60.5655,28.4324 60.2322,27.099 60.5,25.5C 64.4309,17.8097 68.7643,10.3097 73.5,3C 77.5082,3.49527 81.5082,4.3286 85.5,5.5C 84.6803,9.3022 83.0136,12.6355 80.5,15.5 Z"/></g>
<g><path style="opacity:0.943" fill="#e37e43" d="M 34.5,18.5 C 34.8844,16.0706 35.551,13.7373 36.5,11.5C 33.4442,10.4116 30.4442,10.4116 27.5,11.5C 27.4148,10.0047 28.0815,9.00475 29.5,8.5C 32.161,9.33225 34.8276,10.1656 37.5,11C 38.0984,13.9927 37.0984,16.4927 34.5,18.5 Z"/></g>
<g><path style="opacity:1" fill="#f76c1e" d="M 57.5,14.5 C 55.5091,16.8435 53.5091,18.5102 51.5,19.5C 50.8485,20.0906 50.1818,20.7573 49.5,21.5C 48.554,19.9245 48.554,18.2578 49.5,16.5C 49.1322,15.09 48.2989,14.09 47,13.5C 46.1096,16.6337 44.2762,18.967 41.5,20.5C 44.4254,14.3061 48.092,8.63945 52.5,3.5C 56.1008,4.25379 59.4341,5.58712 62.5,7.5C 61.0569,10.0765 59.3902,12.4099 57.5,14.5 Z"/></g>
<g><path style="opacity:1" fill="#f96a1a" d="M 80.5,15.5 C 79.6493,17.8816 78.316,19.8816 76.5,21.5C 75.1667,21.5 73.8333,21.5 72.5,21.5C 72.5792,20.0695 72.2458,18.7362 71.5,17.5C 72.8665,16.16 74.1999,14.8267 75.5,13.5C 77.0315,12.3226 78.5315,10.9893 80,9.5C 80.4955,11.4727 80.6621,13.4727 80.5,15.5 Z"/></g>
<g><path style="opacity:1" fill="#fd6711" d="M 200.5,25.5 C 199.655,27.7715 198.655,30.1048 197.5,32.5C 198.167,34.1667 198.833,35.8333 199.5,37.5C 197.854,39.0548 197.521,40.7215 198.5,42.5C 196.446,43.8655 194.446,44.1988 192.5,43.5C 192.987,42.5266 193.487,41.5266 194,40.5C 194.5,32.5069 194.666,24.5069 194.5,16.5C 196.5,16.5 198.5,16.5 200.5,16.5C 200.5,19.5 200.5,22.5 200.5,25.5 Z"/></g>
<g><path style="opacity:1" fill="#fc6814" d="M 34.5,18.5 C 34.6716,19.4916 34.3382,20.1583 33.5,20.5C 32.2022,19.8843 31.2022,19.8843 30.5,20.5C 29.5595,17.8749 28.3928,17.8749 27,20.5C 26.3292,19.7476 25.4959,19.4142 24.5,19.5C 26.1025,17.113 27.1025,14.4463 27.5,11.5C 30.4442,10.4116 33.4442,10.4116 36.5,11.5C 35.551,13.7373 34.8844,16.0706 34.5,18.5 Z"/></g>
<g><path style="opacity:1" fill="#f56f23" d="M 109.5,23.5 C 109.372,21.9102 108.705,20.5769 107.5,19.5C 105.827,21.0863 103.827,21.7529 101.5,21.5C 103.004,19.1644 105.004,17.331 107.5,16C 116.036,12.8942 123.536,14.3942 130,20.5C 131.009,22.0249 131.509,23.6916 131.5,25.5C 129.599,25.4332 127.766,25.7665 126,26.5C 121.365,21.1466 115.865,20.1466 109.5,23.5 Z"/></g>
<g><path style="opacity:1" fill="#f66d1f" d="M 139.5,16.5 C 146.167,16.5 152.833,16.5 159.5,16.5C 165.304,18.349 167.471,22.349 166,28.5C 165.8,30.3197 164.966,31.653 163.5,32.5C 163.822,30.2776 163.155,28.4443 161.5,27C 162.449,26.3828 163.282,26.5494 164,27.5C 165.976,21.1433 163.643,17.81 157,17.5C 152.245,19.8363 152.745,21.0029 158.5,21C 162.228,24.0649 161.895,26.8983 157.5,29.5C 159.194,26.4107 158.528,23.9107 155.5,22C 151.514,21.5012 147.514,21.3345 143.5,21.5C 142.833,21.5 142.5,21.8333 142.5,22.5C 141.029,20.7844 140.029,18.7844 139.5,16.5 Z"/></g>
<g><path style="opacity:1" fill="#5874ec" d="M 317.5,22.5 C 314.287,21.2977 311.454,19.631 309,17.5C 308.167,17.6667 307.333,17.8333 306.5,18C 308.16,19.4877 309.16,21.321 309.5,23.5C 305.7,21.8568 301.7,21.1901 297.5,21.5C 300.028,20.8343 302.694,20.1676 305.5,19.5C 305.333,19.1667 305.167,18.8333 305,18.5C 302,19.1667 299,19.8333 296,20.5C 295.333,19.8333 294.667,19.1667 294,18.5C 293.259,19.6405 292.425,19.6405 291.5,18.5C 290.526,20.7427 290.192,23.076 290.5,25.5C 290.199,33.5856 290.533,41.5856 291.5,49.5C 289.522,38.5493 288.856,27.216 289.5,15.5C 296.175,15.3337 302.842,15.5004 309.5,16C 313.231,17.0106 315.898,19.1772 317.5,22.5 Z"/></g>
<g><path style="opacity:1" fill="#fd6712" d="M 30.5,20.5 C 29.2863,24.703 27.6197,28.0363 25.5,30.5C 24.7375,29.7321 23.7375,29.2321 22.5,29C 23.9733,28.2904 24.6399,27.1238 24.5,25.5C 23.5,25.5 22.5,25.5 21.5,25.5C 21.7549,23.0326 22.7549,21.0326 24.5,19.5C 25.4959,19.4142 26.3292,19.7476 27,20.5C 28.3928,17.8749 29.5595,17.8749 30.5,20.5 Z"/></g>
<g><path style="opacity:1" fill="#e87332" d="M 235.5,31.5 C 236.477,34.2869 236.81,37.2869 236.5,40.5C 236.5,43.1667 236.5,45.8333 236.5,48.5C 237.833,48.5 239.167,48.5 240.5,48.5C 240.5,37.8333 240.5,27.1667 240.5,16.5C 238.5,16.5 236.5,16.5 234.5,16.5C 231.057,20.0251 229.89,24.3584 231,29.5C 231.333,29.8333 231.667,30.1667 232,30.5C 232.49,29.2068 232.657,27.8734 232.5,26.5C 233.791,26.2627 234.791,26.596 235.5,27.5C 233.833,31.5 232.167,35.5 230.5,39.5C 230.5,36.5 230.5,33.5 230.5,30.5C 229.5,30.5 228.5,30.5 227.5,30.5C 228.989,25.5427 230.323,20.5427 231.5,15.5C 235.167,15.5 238.833,15.5 242.5,15.5C 242.5,26.8333 242.5,38.1667 242.5,49.5C 240.167,49.5 237.833,49.5 235.5,49.5C 235.5,43.5 235.5,37.5 235.5,31.5 Z"/></g>
<g><path style="opacity:1" fill="#fe6710" d="M 234.5,16.5 C 236.5,16.5 238.5,16.5 240.5,16.5C 240.5,27.1667 240.5,37.8333 240.5,48.5C 239.167,48.5 237.833,48.5 236.5,48.5C 236.5,45.8333 236.5,43.1667 236.5,40.5C 238.405,38.951 238.739,37.1176 237.5,35C 238.574,34.2613 239.241,33.2613 239.5,32C 238.995,26.6441 237.328,21.4774 234.5,16.5 Z"/></g>
<g><path style="opacity:0.841" fill="#516ffb" d="M 253.5,16.5 C 256.358,16.0283 258.358,17.0283 259.5,19.5C 259.223,22.4475 259.556,25.2809 260.5,28C 258.981,27.6692 257.648,27.8359 256.5,28.5C 256.167,28.5 255.833,28.5 255.5,28.5C 254.883,28.6107 254.383,28.944 254,29.5C 253.741,24.9967 253.574,20.6634 253.5,16.5 Z"/></g>
<g><path style="opacity:1" fill="#5271f7" d="M 297.5,21.5 C 297.5,28.8333 297.5,36.1667 297.5,43.5C 296.527,44.7914 295.527,44.7914 294.5,43.5C 294.167,42 293.833,40.5 293.5,39C 294.584,35.8211 295.584,32.6544 296.5,29.5C 295.5,29.5 294.5,29.5 293.5,29.5C 293.5,28.1667 293.5,26.8333 293.5,25.5C 292.5,25.5 291.5,25.5 290.5,25.5C 290.192,23.076 290.526,20.7427 291.5,18.5C 292.425,19.6405 293.259,19.6405 294,18.5C 294.667,19.1667 295.333,19.8333 296,20.5C 299,19.8333 302,19.1667 305,18.5C 305.167,18.8333 305.333,19.1667 305.5,19.5C 302.694,20.1676 300.028,20.8343 297.5,21.5 Z"/></g>
<g><path style="opacity:1" fill="#fc6915" d="M 234.5,16.5 C 237.328,21.4774 238.995,26.6441 239.5,32C 239.241,33.2613 238.574,34.2613 237.5,35C 238.739,37.1176 238.405,38.951 236.5,40.5C 236.81,37.2869 236.477,34.2869 235.5,31.5C 235.5,30.1667 235.5,28.8333 235.5,27.5C 234.791,26.596 233.791,26.2627 232.5,26.5C 232.657,27.8734 232.49,29.2068 232,30.5C 231.667,30.1667 231.333,29.8333 231,29.5C 229.89,24.3584 231.057,20.0251 234.5,16.5 Z"/></g>
<g><path style="opacity:1" fill="#5873f0" d="M 387.5,19.5 C 385.668,23.8362 383.335,27.8362 380.5,31.5C 380.328,29.5082 380.995,27.8415 382.5,26.5C 382.043,25.7025 381.376,25.3691 380.5,25.5C 379.571,19.7772 381.904,16.7772 387.5,16.5C 387.5,17.5 387.5,18.5 387.5,19.5 Z"/></g>
<g><path style="opacity:1" fill="#fe6611" d="M 51.5,19.5 C 52.3536,21.9257 51.3536,23.7591 48.5,25C 48.9574,25.414 49.2907,25.914 49.5,26.5C 48.2839,27.0959 46.9506,27.2626 45.5,27C 46.5523,28.7165 45.8856,29.7165 43.5,30C 44.5156,30.5194 45.1822,31.3527 45.5,32.5C 44.7335,34.3575 43.7335,36.0242 42.5,37.5C 41.5,37.5 40.5,37.5 39.5,37.5C 39.4541,33.8616 39.1208,30.1949 38.5,26.5C 40.1667,26.5 41.8333,26.5 43.5,26.5C 42.8333,24.5 42.1667,22.5 41.5,20.5C 44.2762,18.967 46.1096,16.6337 47,13.5C 48.2989,14.09 49.1322,15.09 49.5,16.5C 48.554,18.2578 48.554,19.9245 49.5,21.5C 50.1818,20.7573 50.8485,20.0906 51.5,19.5 Z"/></g>
<g><path style="opacity:1" fill="#fd6613" d="M 75.5,13.5 C 74.1999,14.8267 72.8665,16.16 71.5,17.5C 72.2458,18.7362 72.5792,20.0695 72.5,21.5C 72.5,22.1667 72.5,22.8333 72.5,23.5C 71.1266,23.3433 69.7932,23.51 68.5,24C 66.6704,26.9893 64.6704,29.8226 62.5,32.5C 61.6143,31.675 61.281,30.675 61.5,29.5C 63.5681,26.5842 65.9014,23.7509 68.5,21C 67.9781,20.4387 67.6448,19.772 67.5,19C 68.2822,15.7197 69.2822,12.5531 70.5,9.5C 72.4286,9.23082 74.0953,9.73082 75.5,11C 73.1582,12.3919 73.1582,13.2252 75.5,13.5 Z"/></g>
<g><path style="opacity:1" fill="#fd670f" d="M 72.5,23.5 C 72.5,24.8333 72.5,26.1667 72.5,27.5C 71.325,27.281 70.325,27.6143 69.5,28.5C 68.5371,31.2833 67.3704,33.95 66,36.5C 64.7109,33.9257 62.8776,33.259 60.5,34.5C 59.9084,31.8728 59.5751,29.2062 59.5,26.5C 59.5,25.8333 59.8333,25.5 60.5,25.5C 60.2322,27.099 60.5655,28.4324 61.5,29.5C 61.281,30.675 61.6143,31.675 62.5,32.5C 64.6704,29.8226 66.6704,26.9893 68.5,24C 69.7932,23.51 71.1266,23.3433 72.5,23.5 Z"/></g>
<g><path style="opacity:0.294" fill="#eb7a36" d="M 180.5,41.5 C 178.896,40.713 178.229,39.3797 178.5,37.5C 178.5,30.5 178.5,23.5 178.5,16.5C 176.5,16.5 174.5,16.5 172.5,16.5C 172.5,22.8333 172.5,29.1667 172.5,35.5C 172.5,37.8333 172.5,40.1667 172.5,42.5C 171.507,33.6822 171.173,24.6822 171.5,15.5C 174.167,15.5 176.833,15.5 179.5,15.5C 179.225,24.2206 179.558,32.8873 180.5,41.5 Z"/></g>
<g><path style="opacity:1" fill="#fc6810" d="M 178.5,37.5 C 177.624,37.6309 176.957,37.2975 176.5,36.5C 177.59,35.3914 177.59,34.3914 176.5,33.5C 175.378,34.6302 174.044,35.2969 172.5,35.5C 172.5,29.1667 172.5,22.8333 172.5,16.5C 174.5,16.5 176.5,16.5 178.5,16.5C 178.5,23.5 178.5,30.5 178.5,37.5 Z"/></g>
<g><path style="opacity:0.918" fill="#ef7631" d="M 200.5,41.5 C 200.5,36.1667 200.5,30.8333 200.5,25.5C 200.5,22.5 200.5,19.5 200.5,16.5C 198.5,16.5 196.5,16.5 194.5,16.5C 194.666,24.5069 194.5,32.5069 194,40.5C 193.487,41.5266 192.987,42.5266 192.5,43.5C 191.833,43.5 191.167,43.5 190.5,43.5C 191.504,42.3172 192.338,40.9839 193,39.5C 193.5,31.5069 193.666,23.5069 193.5,15.5C 196.167,15.5 198.833,15.5 201.5,15.5C 201.826,24.3494 201.493,33.0161 200.5,41.5 Z"/></g>
<g><path style="opacity:0.988" fill="#5773f0" d="M 350.5,32.5 C 347.627,27.9448 345.294,22.9448 343.5,17.5C 341.235,16.3526 338.902,16.1859 336.5,17C 338.916,18.4253 340.249,20.592 340.5,23.5C 338.975,26.0791 337.641,28.7458 336.5,31.5C 335.566,32.5676 335.232,33.901 335.5,35.5C 334.175,34.0474 333.342,34.3808 333,36.5C 332.5,36 332,35.5 331.5,35C 334.662,30.1858 333.996,29.0191 329.5,31.5C 331.171,26.1551 332.837,20.8217 334.5,15.5C 338.106,15.2108 341.606,15.5442 345,16.5C 347.127,21.7486 348.96,27.0819 350.5,32.5 Z"/></g>
<g><path style="opacity:1" fill="#fd6611" d="M 163.5,32.5 C 160.093,33.3356 156.759,34.3356 153.5,35.5C 153.631,34.6236 153.298,33.9569 152.5,33.5C 151.614,34.325 151.281,35.325 151.5,36.5C 149.396,36.7989 147.396,36.4656 145.5,35.5C 145.833,34.8333 146.167,34.1667 146.5,33.5C 149.833,32.8333 153.167,32.1667 156.5,31.5C 156.863,30.8165 157.196,30.1499 157.5,29.5C 161.895,26.8983 162.228,24.0649 158.5,21C 152.745,21.0029 152.245,19.8363 157,17.5C 163.643,17.81 165.976,21.1433 164,27.5C 163.282,26.5494 162.449,26.3828 161.5,27C 163.155,28.4443 163.822,30.2776 163.5,32.5 Z"/></g>
<g><path style="opacity:1" fill="#5872e6" d="M 270.5,43.5 C 270.768,40.8806 270.435,38.3806 269.5,36C 270.448,35.5172 271.448,35.3505 272.5,35.5C 272.875,32.6035 272.375,29.9368 271,27.5C 270.878,29.437 270.045,30.7703 268.5,31.5C 269.833,26.1667 271.167,20.8333 272.5,15.5C 276.167,15.5 279.833,15.5 283.5,15.5C 283.5,26.8333 283.5,38.1667 283.5,49.5C 281.167,49.5 278.833,49.5 276.5,49.5C 276.666,42.1591 276.5,34.8258 276,27.5C 274.23,32.9795 272.397,38.3128 270.5,43.5 Z"/></g>
<g><path style="opacity:1" fill="#5270fd" d="M 290.5,25.5 C 291.5,25.5 292.5,25.5 293.5,25.5C 293.5,26.8333 293.5,28.1667 293.5,29.5C 294.5,29.5 295.5,29.5 296.5,29.5C 295.584,32.6544 294.584,35.8211 293.5,39C 293.833,40.5 294.167,42 294.5,43.5C 295.527,44.7914 296.527,44.7914 297.5,43.5C 297.842,44.3382 298.508,44.6716 299.5,44.5C 299.631,45.3764 299.298,46.0431 298.5,46.5C 295.68,45.2913 294.013,46.2913 293.5,49.5C 292.833,49.5 292.167,49.5 291.5,49.5C 290.533,41.5856 290.199,33.5856 290.5,25.5 Z"/></g>
<g><path style="opacity:1" fill="#fd6917" d="M 109.5,23.5 C 109.672,24.4916 109.338,25.1583 108.5,25.5C 106.427,29.3077 104.094,32.9744 101.5,36.5C 100.431,31.8442 100.431,27.1776 101.5,22.5C 101.5,22.1667 101.5,21.8333 101.5,21.5C 103.827,21.7529 105.827,21.0863 107.5,19.5C 108.705,20.5769 109.372,21.9102 109.5,23.5 Z"/></g>
<g><path style="opacity:1" fill="#eb742b" d="M 33.5,20.5 C 30.4155,26.3392 27.0821,32.0058 23.5,37.5C 22.9898,34.6122 23.6565,32.2789 25.5,30.5C 27.6197,28.0363 29.2863,24.703 30.5,20.5C 31.2022,19.8843 32.2022,19.8843 33.5,20.5 Z"/></g>
<g><path style="opacity:1" fill="#fc6712" d="M 139.5,16.5 C 140.029,18.7844 141.029,20.7844 142.5,22.5C 142.789,26.1064 142.456,29.6064 141.5,33C 142.308,33.3076 142.975,33.8076 143.5,34.5C 142.049,35.906 140.716,37.406 139.5,39C 140.448,39.4828 141.448,39.6495 142.5,39.5C 142.5,42.5 142.5,45.5 142.5,48.5C 140.5,48.5 138.5,48.5 136.5,48.5C 136.5,37.8333 136.5,27.1667 136.5,16.5C 137.5,16.5 138.5,16.5 139.5,16.5 Z"/></g>
<g><path style="opacity:1" fill="#5370f7" d="M 350.5,32.5 C 351.11,33.391 351.443,34.391 351.5,35.5C 351.674,37.861 352.007,40.1944 352.5,42.5C 351.5,42.5 350.5,42.5 349.5,42.5C 349.456,45.4808 349.123,45.8142 348.5,43.5C 348.818,42.3527 349.484,41.5194 350.5,41C 350.117,38.876 348.617,37.0427 346,35.5C 344.731,36.9047 344.231,38.5714 344.5,40.5C 342.833,40.5 341.167,40.5 339.5,40.5C 339.351,39.448 339.517,38.448 340,37.5C 341.785,38.3538 342.951,37.6871 343.5,35.5C 343.5,35.1667 343.5,34.8333 343.5,34.5C 342.297,30.8899 341.297,27.2232 340.5,23.5C 340.249,20.592 338.916,18.4253 336.5,17C 338.902,16.1859 341.235,16.3526 343.5,17.5C 345.294,22.9448 347.627,27.9448 350.5,32.5 Z"/></g>
<g><path style="opacity:1" fill="#fd6611" d="M 21.5,25.5 C 22.5,25.5 23.5,25.5 24.5,25.5C 24.6399,27.1238 23.9733,28.2904 22.5,29C 23.7375,29.2321 24.7375,29.7321 25.5,30.5C 23.6565,32.2789 22.9898,34.6122 23.5,37.5C 20.4359,37.8563 17.7693,37.0229 15.5,35C 17.2828,31.6269 19.2828,28.4602 21.5,25.5 Z"/></g>
<g><path style="opacity:1" fill="#f1732b" d="M 57.5,14.5 C 53.0019,23.5014 48.0019,32.168 42.5,40.5C 42.5,39.5 42.5,38.5 42.5,37.5C 43.7335,36.0242 44.7335,34.3575 45.5,32.5C 45.1822,31.3527 44.5156,30.5194 43.5,30C 45.8856,29.7165 46.5523,28.7165 45.5,27C 46.9506,27.2626 48.2839,27.0959 49.5,26.5C 49.2907,25.914 48.9574,25.414 48.5,25C 51.3536,23.7591 52.3536,21.9257 51.5,19.5C 53.5091,18.5102 55.5091,16.8435 57.5,14.5 Z"/></g>
<g><path style="opacity:0.994" fill="#5973ea" d="M 259.5,19.5 C 261.669,25.3411 263.669,31.3411 265.5,37.5C 263.172,36.2644 262.006,34.2644 262,31.5C 261.667,32.1667 261.333,32.8333 261,33.5C 260.842,38.2147 261.342,42.8814 262.5,47.5C 259.726,41.5068 257.726,35.1735 256.5,28.5C 257.648,27.8359 258.981,27.6692 260.5,28C 259.556,25.2809 259.223,22.4475 259.5,19.5 Z"/></g>
<g><path style="opacity:1" fill="#5170fc" d="M 317.5,22.5 C 318.292,28.1302 318.625,33.7969 318.5,39.5C 317.178,39.33 316.011,39.6634 315,40.5C 313.842,40.0019 313.009,39.1685 312.5,38C 315.059,33.3598 314.726,28.8598 311.5,24.5C 311.043,23.7025 310.376,23.3691 309.5,23.5C 309.16,21.321 308.16,19.4877 306.5,18C 307.333,17.8333 308.167,17.6667 309,17.5C 311.454,19.631 314.287,21.2977 317.5,22.5 Z"/></g>
<g><path style="opacity:0.18" fill="#ec7a36" d="M 159.5,16.5 C 152.833,16.5 146.167,16.5 139.5,16.5C 138.5,16.5 137.5,16.5 136.5,16.5C 136.5,27.1667 136.5,37.8333 136.5,48.5C 138.5,48.5 140.5,48.5 142.5,48.5C 142.5,45.5 142.5,42.5 142.5,39.5C 142.328,38.5084 142.662,37.8417 143.5,37.5C 143.5,41.5 143.5,45.5 143.5,49.5C 140.833,49.5 138.167,49.5 135.5,49.5C 135.5,38.1667 135.5,26.8333 135.5,15.5C 143.684,15.1743 151.684,15.5076 159.5,16.5 Z"/></g>
<g><path style="opacity:0.999" fill="#5070fa" d="M 253.5,16.5 C 253.574,20.6634 253.741,24.9967 254,29.5C 254.383,28.944 254.883,28.6107 255.5,28.5C 255.5,29.5 255.5,30.5 255.5,31.5C 254.511,36.9753 254.178,42.642 254.5,48.5C 252.833,48.5 251.167,48.5 249.5,48.5C 249.5,37.8333 249.5,27.1667 249.5,16.5C 250.833,16.5 252.167,16.5 253.5,16.5 Z"/></g>
<g><path style="opacity:1" fill="#5773ee" d="M 387.5,19.5 C 387.5,18.5 387.5,17.5 387.5,16.5C 381.904,16.7772 379.571,19.7772 380.5,25.5C 379.292,26.2341 377.959,26.5674 376.5,26.5C 376.39,30.0002 375.557,33.3335 374,36.5C 372.935,34.6037 372.102,34.437 371.5,36C 372.044,38.3997 372.711,40.733 373.5,43C 372.577,45.0408 372.244,47.2075 372.5,49.5C 370.72,45.2726 369.886,40.6059 370,35.5C 366.167,29.1667 362.333,22.8333 358.5,16.5C 361.106,15.3483 363.773,15.1816 366.5,16C 369.126,20.0838 371.626,24.2505 374,28.5C 376.877,24.582 379.377,20.4153 381.5,16C 384.5,15.3333 387.5,15.3333 390.5,16C 389.364,17.1451 388.364,18.3117 387.5,19.5 Z"/></g>
<g><path style="opacity:1" fill="#f57021" d="M 143.5,21.5 C 143.5,24.5 143.5,27.5 143.5,30.5C 148.23,30.7166 152.897,30.3833 157.5,29.5C 157.196,30.1499 156.863,30.8165 156.5,31.5C 153.167,32.1667 149.833,32.8333 146.5,33.5C 146.167,34.1667 145.833,34.8333 145.5,35.5C 147.396,36.4656 149.396,36.7989 151.5,36.5C 151.281,35.325 151.614,34.325 152.5,33.5C 153.298,33.9569 153.631,34.6236 153.5,35.5C 153.5,36.8333 153.5,38.1667 153.5,39.5C 150.495,37.7006 147.162,37.0339 143.5,37.5C 142.662,37.8417 142.328,38.5084 142.5,39.5C 141.448,39.6495 140.448,39.4828 139.5,39C 140.716,37.406 142.049,35.906 143.5,34.5C 142.975,33.8076 142.308,33.3076 141.5,33C 142.456,29.6064 142.789,26.1064 142.5,22.5C 142.5,21.8333 142.833,21.5 143.5,21.5 Z"/></g>
<g><path style="opacity:1" fill="#f67028" d="M 72.5,21.5 C 73.8333,21.5 75.1667,21.5 76.5,21.5C 73.2552,28.9965 69.2552,35.9965 64.5,42.5C 64.6602,40.8008 64.4935,39.1341 64,37.5C 63.6667,38.1667 63.3333,38.8333 63,39.5C 61.117,38.3474 60.2837,36.6807 60.5,34.5C 62.8776,33.259 64.7109,33.9257 66,36.5C 67.3704,33.95 68.5371,31.2833 69.5,28.5C 70.325,27.6143 71.325,27.281 72.5,27.5C 72.5,26.1667 72.5,24.8333 72.5,23.5C 72.5,22.8333 72.5,22.1667 72.5,21.5 Z"/></g>
<g><path style="opacity:1" fill="#5472f7" d="M 380.5,25.5 C 381.376,25.3691 382.043,25.7025 382.5,26.5C 380.995,27.8415 380.328,29.5082 380.5,31.5C 380.573,33.0269 379.906,34.0269 378.5,34.5C 377.787,39.3979 377.121,44.3979 376.5,49.5C 375.167,49.5 373.833,49.5 372.5,49.5C 372.244,47.2075 372.577,45.0408 373.5,43C 372.711,40.733 372.044,38.3997 371.5,36C 372.102,34.437 372.935,34.6037 374,36.5C 375.557,33.3335 376.39,30.0002 376.5,26.5C 377.959,26.5674 379.292,26.2341 380.5,25.5 Z"/></g>
<g><path style="opacity:1" fill="#f66d1c" d="M 41.5,20.5 C 42.1667,22.5 42.8333,24.5 43.5,26.5C 41.8333,26.5 40.1667,26.5 38.5,26.5C 39.1208,30.1949 39.4541,33.8616 39.5,37.5C 40.5,37.5 41.5,37.5 42.5,37.5C 42.5,38.5 42.5,39.5 42.5,40.5C 41.6493,42.8816 40.316,44.8816 38.5,46.5C 38.7771,43.5525 38.4438,40.7191 37.5,38C 36.5838,37.6258 35.7504,37.1258 35,36.5C 33.871,38.1412 32.371,39.1412 30.5,39.5C 33.7753,32.903 37.442,26.5697 41.5,20.5 Z"/></g>
<g><path style="opacity:1" fill="#f96b1a" d="M 59.5,26.5 C 59.5751,29.2062 59.9084,31.8728 60.5,34.5C 60.2837,36.6807 61.117,38.3474 63,39.5C 63.3333,38.8333 63.6667,38.1667 64,37.5C 64.4935,39.1341 64.6602,40.8008 64.5,42.5C 62.8627,46.1178 60.8627,49.4512 58.5,52.5C 56.9157,53.3818 55.249,54.2152 53.5,55C 54.5171,56.0495 54.6838,57.2161 54,58.5C 53.6667,58.1667 53.3333,57.8333 53,57.5C 52.7508,58.624 52.2508,59.624 51.5,60.5C 45.9588,57.3162 44.6254,52.9828 47.5,47.5C 47.7497,45.326 48.7497,43.6594 50.5,42.5C 52.9969,36.835 55.9969,31.5016 59.5,26.5 Z"/></g>
<g><path style="opacity:1" fill="#f66c1f" d="M 178.5,37.5 C 178.229,39.3797 178.896,40.713 180.5,41.5C 183.162,43.2681 186.162,43.9347 189.5,43.5C 185.259,44.8184 180.926,44.6517 176.5,43C 177.731,41.8173 177.731,40.6507 176.5,39.5C 175.232,41.3043 174.565,43.3043 174.5,45.5C 173.094,45.0269 172.427,44.0269 172.5,42.5C 172.5,40.1667 172.5,37.8333 172.5,35.5C 174.044,35.2969 175.378,34.6302 176.5,33.5C 177.59,34.3914 177.59,35.3914 176.5,36.5C 176.957,37.2975 177.624,37.6309 178.5,37.5 Z"/></g>
<g><path style="opacity:0.016" fill="#afb3f4" d="M 336.5,31.5 C 336.5,32.5 336.5,33.5 336.5,34.5C 338.833,34.5 341.167,34.5 343.5,34.5C 343.5,34.8333 343.5,35.1667 343.5,35.5C 340.833,35.5 338.167,35.5 335.5,35.5C 335.232,33.901 335.566,32.5676 336.5,31.5 Z"/></g>
<g><path style="opacity:1" fill="#f46f25" d="M 27.5,11.5 C 27.1025,14.4463 26.1025,17.113 24.5,19.5C 22.7549,21.0326 21.7549,23.0326 21.5,25.5C 19.2828,28.4602 17.2828,31.6269 15.5,35C 17.7693,37.0229 20.4359,37.8563 23.5,37.5C 20.6239,43.7207 17.2906,49.7207 13.5,55.5C 10.5818,56.7128 7.91513,56.3795 5.5,54.5C 6.5,54.5 7.5,54.5 8.5,54.5C 9.70792,55.2341 11.0413,55.5674 12.5,55.5C 12.67,54.1779 12.3366,53.0113 11.5,52C 13.7536,50.9461 14.087,49.4461 12.5,47.5C 13.2874,43.6691 15.2874,42.6691 18.5,44.5C 18.6567,43.1266 18.49,41.7932 18,40.5C 16.6439,41.3802 15.1439,41.7135 13.5,41.5C 13.6495,40.448 13.4828,39.448 13,38.5C 12.5831,39.756 11.7498,40.4226 10.5,40.5C 15.4134,30.3323 21.08,20.6656 27.5,11.5 Z"/></g>
<g><path style="opacity:1" fill="#f37227" d="M 101.5,22.5 C 100.431,27.1776 100.431,31.8442 101.5,36.5C 104.094,32.9744 106.427,29.3077 108.5,25.5C 107.167,30.1667 107.167,34.8333 108.5,39.5C 106.833,39.5 105.167,39.5 103.5,39.5C 103.343,40.8734 103.51,42.2068 104,43.5C 109.299,48.4103 115.465,49.7436 122.5,47.5C 122.808,46.6919 123.308,46.0253 124,45.5C 124.893,46.7112 125.726,46.7112 126.5,45.5C 126.291,44.914 125.957,44.414 125.5,44C 127.134,43.5065 128.801,43.3398 130.5,43.5C 125.686,49.7168 119.353,51.8835 111.5,50C 105.412,48.9099 101.579,45.4099 100,39.5C 99.3333,34.5 99.3333,29.5 100,24.5C 100.278,23.5842 100.778,22.9175 101.5,22.5 Z"/></g>
<g><path style="opacity:1" fill="#f66e21" d="M 163.5,32.5 C 162.426,33.8846 161.093,35.0513 159.5,36C 162.364,40.0326 165.031,44.1993 167.5,48.5C 164.554,49.6548 161.554,49.8214 158.5,49C 156.574,45.9244 154.908,42.7577 153.5,39.5C 153.5,38.1667 153.5,36.8333 153.5,35.5C 156.759,34.3356 160.093,33.3356 163.5,32.5 Z"/></g>
<g><path style="opacity:0.937" fill="#556ede" d="M 259.5,19.5 C 258.358,17.0283 256.358,16.0283 253.5,16.5C 252.167,16.5 250.833,16.5 249.5,16.5C 249.5,27.1667 249.5,37.8333 249.5,48.5C 251.167,48.5 252.833,48.5 254.5,48.5C 254.178,42.642 254.511,36.9753 255.5,31.5C 255.5,37.5 255.5,43.5 255.5,49.5C 253.167,49.5 250.833,49.5 248.5,49.5C 248.5,38.1667 248.5,26.8333 248.5,15.5C 251.85,15.335 255.183,15.5017 258.5,16C 259.337,17.0113 259.67,18.1779 259.5,19.5 Z"/></g>
<g><path style="opacity:1" fill="#5170f9" d="M 274.5,16.5 C 277.167,16.5 279.833,16.5 282.5,16.5C 282.5,27.1667 282.5,37.8333 282.5,48.5C 280.833,48.5 279.167,48.5 277.5,48.5C 277.815,40.5803 277.482,32.747 276.5,25C 277.167,23.6667 277.833,22.3333 278.5,21C 276.249,20.2525 274.916,18.7525 274.5,16.5 Z"/></g>
<g><path style="opacity:1" fill="#f96a19" d="M 221.5,29.5 C 222.933,32.2823 224.1,35.2823 225,38.5C 225.542,35.7084 226.376,33.0417 227.5,30.5C 228.5,30.5 229.5,30.5 230.5,30.5C 230.5,33.5 230.5,36.5 230.5,39.5C 230.5,39.8333 230.5,40.1667 230.5,40.5C 228.308,42.7047 226.974,45.3714 226.5,48.5C 225.167,48.5 223.833,48.5 222.5,48.5C 222.818,45.5185 221.818,43.1852 219.5,41.5C 218.566,40.4324 218.232,39.099 218.5,37.5C 218.211,34.3508 218.711,31.3508 220,28.5C 220.383,29.056 220.883,29.3893 221.5,29.5 Z"/></g>
<g><path style="opacity:1" fill="#4f70f9" d="M 270.5,43.5 C 268.744,44.5521 268.077,46.2188 268.5,48.5C 266.379,48.6747 264.379,48.3414 262.5,47.5C 261.342,42.8814 260.842,38.2147 261,33.5C 261.333,32.8333 261.667,32.1667 262,31.5C 262.006,34.2644 263.172,36.2644 265.5,37.5C 266.476,36.0965 267.476,34.0965 268.5,31.5C 270.045,30.7703 270.878,29.437 271,27.5C 272.375,29.9368 272.875,32.6035 272.5,35.5C 271.448,35.3505 270.448,35.5172 269.5,36C 270.435,38.3806 270.768,40.8806 270.5,43.5 Z"/></g>
<g><path style="opacity:1" fill="#fd660f" d="M 50.5,42.5 C 52.4656,40.5803 54.4656,38.5803 56.5,36.5C 57.5904,37.727 58.9238,38.5604 60.5,39C 58.5,40.3239 56.8334,41.9905 55.5,44C 56.3279,44.9147 57.3279,45.5814 58.5,46C 57.8333,47 57.1667,48 56.5,49C 54.444,49.3108 52.444,49.8108 50.5,50.5C 48.7172,49.6518 48.2172,48.3185 49,46.5C 49.7175,47.4506 50.5509,47.6172 51.5,47C 50.6198,45.6439 50.2865,44.1439 50.5,42.5 Z"/></g>
<g><path style="opacity:1" fill="#ed7732" d="M 130.5,43.5 C 130.542,41.1511 129.375,39.8178 127,39.5C 125.333,40.7665 123.833,42.2665 122.5,44C 117.845,44.4992 113.179,44.6658 108.5,44.5C 108.5,42.8333 108.5,41.1667 108.5,39.5C 112.367,43.742 117.034,44.5754 122.5,42C 124.771,36.7513 128.104,36.0846 132.5,40C 131.915,41.3024 131.249,42.469 130.5,43.5 Z"/></g>
<g><path style="opacity:0.999" fill="#ee732c" d="M 221.5,29.5 C 220.883,29.3893 220.383,29.056 220,28.5C 218.711,31.3508 218.211,34.3508 218.5,37.5C 217.067,34.7177 215.9,31.7177 215,28.5C 214.5,35.4921 214.334,42.4921 214.5,49.5C 212.167,49.5 209.833,49.5 207.5,49.5C 207.5,38.1667 207.5,26.8333 207.5,15.5C 210.85,15.335 214.183,15.5017 217.5,16C 219.541,20.2892 220.874,24.7892 221.5,29.5 Z"/></g>
<g><path style="opacity:1" fill="#fd6812" d="M 208.5,18.5 C 209.496,18.4142 210.329,18.7476 211,19.5C 211.202,21.2556 211.702,22.9223 212.5,24.5C 213.251,23.624 213.751,22.624 214,21.5C 215.036,23.299 215.203,24.9657 214.5,26.5C 213.778,26.9175 213.278,27.5842 213,28.5C 212.5,35.1583 212.334,41.825 212.5,48.5C 211.167,48.5 209.833,48.5 208.5,48.5C 208.5,38.5 208.5,28.5 208.5,18.5 Z"/></g>
<g><path style="opacity:1" fill="#fd6611" d="M 214.5,26.5 C 215.203,24.9657 215.036,23.299 214,21.5C 213.751,22.624 213.251,23.624 212.5,24.5C 211.702,22.9223 211.202,21.2556 211,19.5C 210.329,18.7476 209.496,18.4142 208.5,18.5C 210.635,16.631 213.302,15.9644 216.5,16.5C 216.915,18.7468 217.582,20.9135 218.5,23C 218,25.5 217.5,28 217,30.5C 216.878,28.563 216.045,27.2297 214.5,26.5 Z"/></g>
<g><path style="opacity:1" fill="#5a73eb" d="M 317.5,22.5 C 321.785,30.3575 321.285,38.0242 316,45.5C 314.13,47.2189 311.963,48.2189 309.5,48.5C 309.5,47.5 309.5,46.5 309.5,45.5C 306.167,45.1667 302.833,44.8333 299.5,44.5C 298.508,44.6716 297.842,44.3382 297.5,43.5C 306.414,44.8968 311.414,41.2301 312.5,32.5C 312.091,29.2727 311.091,26.2727 309.5,23.5C 310.376,23.3691 311.043,23.7025 311.5,24.5C 314.726,28.8598 315.059,33.3598 312.5,38C 313.009,39.1685 313.842,40.0019 315,40.5C 316.011,39.6634 317.178,39.33 318.5,39.5C 318.625,33.7969 318.292,28.1302 317.5,22.5 Z"/></g>
<g><path style="opacity:0.227" fill="#6275c6" d="M 378.5,34.5 C 379.108,39.9443 378.442,44.9443 376.5,49.5C 377.121,44.3979 377.787,39.3979 378.5,34.5 Z"/></g>
<g><path style="opacity:1" fill="#fd6611" d="M 108.5,39.5 C 108.5,41.1667 108.5,42.8333 108.5,44.5C 113.179,44.6658 117.845,44.4992 122.5,44C 123.833,42.2665 125.333,40.7665 127,39.5C 129.375,39.8178 130.542,41.1511 130.5,43.5C 128.801,43.3398 127.134,43.5065 125.5,44C 125.957,44.414 126.291,44.914 126.5,45.5C 125.726,46.7112 124.893,46.7112 124,45.5C 123.308,46.0253 122.808,46.6919 122.5,47.5C 115.465,49.7436 109.299,48.4103 104,43.5C 103.51,42.2068 103.343,40.8734 103.5,39.5C 105.167,39.5 106.833,39.5 108.5,39.5 Z"/></g>
<g><path style="opacity:1" fill="#fe650e" d="M 8.5,54.5 C 9.09065,53.8485 9.75731,53.1818 10.5,52.5C 9.59753,48.5412 9.59753,44.5412 10.5,40.5C 11.7498,40.4226 12.5831,39.756 13,38.5C 13.4828,39.448 13.6495,40.448 13.5,41.5C 15.1439,41.7135 16.6439,41.3802 18,40.5C 18.49,41.7932 18.6567,43.1266 18.5,44.5C 15.2874,42.6691 13.2874,43.6691 12.5,47.5C 14.087,49.4461 13.7536,50.9461 11.5,52C 12.3366,53.0113 12.67,54.1779 12.5,55.5C 11.0413,55.5674 9.70792,55.2341 8.5,54.5 Z"/></g>
<g><path style="opacity:1" fill="#fa6816" d="M 38.5,46.5 C 37.6006,49.395 36.2672,52.0616 34.5,54.5C 31.1362,55.2107 28.8029,54.044 27.5,51C 28.7441,50.5439 29.5774,51.0439 30,52.5C 30.5946,51.1011 30.4279,49.7678 29.5,48.5C 31.0026,48.1654 32.336,48.1654 33.5,48.5C 31.949,45.641 30.949,42.641 30.5,39.5C 32.371,39.1412 33.871,38.1412 35,36.5C 35.7504,37.1258 36.5838,37.6258 37.5,38C 38.4438,40.7191 38.7771,43.5525 38.5,46.5 Z"/></g>
<g><path style="opacity:1" fill="#fb6916" d="M 200.5,25.5 C 200.5,30.8333 200.5,36.1667 200.5,41.5C 200.378,44.2921 199.044,46.2921 196.5,47.5C 188.885,49.3253 181.552,48.6586 174.5,45.5C 174.565,43.3043 175.232,41.3043 176.5,39.5C 177.731,40.6507 177.731,41.8173 176.5,43C 180.926,44.6517 185.259,44.8184 189.5,43.5C 189.833,43.5 190.167,43.5 190.5,43.5C 191.167,43.5 191.833,43.5 192.5,43.5C 194.446,44.1988 196.446,43.8655 198.5,42.5C 197.521,40.7215 197.854,39.0548 199.5,37.5C 198.833,35.8333 198.167,34.1667 197.5,32.5C 198.655,30.1048 199.655,27.7715 200.5,25.5 Z"/></g>
<g><path style="opacity:0.992" fill="#5572f1" d="M 335.5,35.5 C 338.167,35.5 340.833,35.5 343.5,35.5C 342.951,37.6871 341.785,38.3538 340,37.5C 339.517,38.448 339.351,39.448 339.5,40.5C 341.167,40.5 342.833,40.5 344.5,40.5C 344.231,38.5714 344.731,36.9047 346,35.5C 348.617,37.0427 350.117,38.876 350.5,41C 349.484,41.5194 348.818,42.3527 348.5,43.5C 349.123,45.8142 349.456,45.4808 349.5,42.5C 350.5,42.5 351.5,42.5 352.5,42.5C 352.007,40.1944 351.674,37.861 351.5,35.5C 353.335,39.6558 355.001,43.9891 356.5,48.5C 349.752,50.9858 346.419,48.6525 346.5,41.5C 342.116,41.1744 337.783,41.5078 333.5,42.5C 332.423,44.7294 331.756,47.0628 331.5,49.5C 328.482,49.6646 325.482,49.498 322.5,49C 324.954,43.1237 327.287,37.2904 329.5,31.5C 333.996,29.0191 334.662,30.1858 331.5,35C 332,35.5 332.5,36 333,36.5C 333.342,34.3808 334.175,34.0474 335.5,35.5 Z"/></g>
<g><path style="opacity:1" fill="#f56d21" d="M 10.5,40.5 C 9.59753,44.5412 9.59753,48.5412 10.5,52.5C 9.75731,53.1818 9.09065,53.8485 8.5,54.5C 7.5,54.5 6.5,54.5 5.5,54.5C 4.32496,54.719 3.32496,54.3857 2.5,53.5C 4.43994,48.6003 7.1066,44.267 10.5,40.5 Z"/></g>
<g><path style="opacity:0.996" fill="#5072f8" d="M 299.5,44.5 C 302.833,44.8333 306.167,45.1667 309.5,45.5C 309.5,46.5 309.5,47.5 309.5,48.5C 304.36,49.4881 299.026,49.8214 293.5,49.5C 294.013,46.2913 295.68,45.2913 298.5,46.5C 299.298,46.0431 299.631,45.3764 299.5,44.5 Z"/></g>
<g><path style="opacity:1" fill="#e87736" d="M 174.5,45.5 C 181.552,48.6586 188.885,49.3253 196.5,47.5C 190.866,50.8284 184.866,51.3284 178.5,49C 176.676,48.34 175.343,47.1733 174.5,45.5 Z"/></g>
<g><path style="opacity:1" fill="#e57738" d="M 230.5,40.5 C 229.833,43.5 229.167,46.5 228.5,49.5C 222.093,50.6945 219.093,48.0278 219.5,41.5C 221.818,43.1852 222.818,45.5185 222.5,48.5C 223.833,48.5 225.167,48.5 226.5,48.5C 226.974,45.3714 228.308,42.7047 230.5,40.5 Z"/></g>
<g><path style="opacity:0.98" fill="#607bdf" d="M 270.5,43.5 C 270.167,45.5 269.833,47.5 269.5,49.5C 266.612,50.0102 264.279,49.3435 262.5,47.5C 264.379,48.3414 266.379,48.6747 268.5,48.5C 268.077,46.2188 268.744,44.5521 270.5,43.5 Z"/></g>
<g><path style="opacity:1" fill="#f46f22" d="M 30.5,39.5 C 30.949,42.641 31.949,45.641 33.5,48.5C 32.336,48.1654 31.0026,48.1654 29.5,48.5C 30.4279,49.7678 30.5946,51.1011 30,52.5C 29.5774,51.0439 28.7441,50.5439 27.5,51C 28.8029,54.044 31.1362,55.2107 34.5,54.5C 34.1344,55.6946 33.301,56.3613 32,56.5C 28.3893,55.7508 25.2227,54.2508 22.5,52C 24.6199,47.4009 27.2866,43.2342 30.5,39.5 Z"/></g>
<g><path style="opacity:1" fill="#f4722a" d="M 47.5,47.5 C 44.6254,52.9828 45.9588,57.3162 51.5,60.5C 52.2508,59.624 52.7508,58.624 53,57.5C 53.3333,57.8333 53.6667,58.1667 54,58.5C 54.6838,57.2161 54.5171,56.0495 53.5,55C 55.249,54.2152 56.9157,53.3818 58.5,52.5C 55.3379,62.8751 49.6713,64.3751 41.5,57C 43.1435,53.532 45.1435,50.3654 47.5,47.5 Z"/></g>
</svg>
