<svg xmlns="http://www.w3.org/2000/svg" width="395" height="67" style="shape-rendering:geometricPrecision;text-rendering:geometricPrecision;image-rendering:optimizeQuality;fill-rule:evenodd;clip-rule:evenodd"><path fill="#f66e21" d="M80.5 15.5a18.436 18.436 0 0 0-.5-6 43.978 43.978 0 0 1-4.5 4c-2.342-.275-2.342-1.108 0-2.5-1.405-1.27-3.071-1.77-5-1.5a68.47 68.47 0 0 0-3 9.5 3.943 3.943 0 0 0 1 2 78.66 78.66 0 0 0-7 8.5c-.934-1.068-1.268-2.401-1-4A253.85 253.85 0 0 1 73.5 3a75.404 75.404 0 0 1 12 2.5c-.82 3.802-2.486 7.136-5 10Z" style="opacity:1"/><path fill="#e37e43" d="M34.5 18.5a29.77 29.77 0 0 1 2-7c-3.056-1.088-6.056-1.088-9 0-.085-1.495.581-2.495 2-3l8 2.5c.598 2.993-.402 5.493-3 7.5Z" style="opacity:.943"/><path fill="#f76c1e" d="M57.5 14.5c-1.99 2.343-3.99 4.01-6 5a30.943 30.943 0 0 0-2 2c-.946-1.576-.946-3.242 0-5-.368-1.41-1.201-2.41-2.5-3-.89 3.134-2.724 5.467-5.5 7a75.532 75.532 0 0 1 11-17c3.6.754 6.934 2.087 10 4a38.268 38.268 0 0 1-5 7Z" style="opacity:1"/><path fill="#f96a1a" d="M80.5 15.5c-.85 2.382-2.184 4.382-4 6h-4a6.845 6.845 0 0 0-1-4c1.367-1.34 2.7-2.673 4-4a43.978 43.978 0 0 0 4.5-4c.496 1.973.662 3.973.5 6Z" style="opacity:1"/><path fill="#fd6711" d="M200.5 25.5a81.85 81.85 0 0 1-3 7l2 5c-1.646 1.555-1.979 3.221-1 5-2.054 1.365-4.054 1.699-6 1l1.5-3c.5-7.993.666-15.993.5-24h6v9Z" style="opacity:1"/><path fill="#fc6814" d="M34.5 18.5c.172.992-.162 1.658-1 2-1.298-.616-2.298-.616-3 0-.94-2.625-2.107-2.625-3.5 0-.67-.752-1.504-1.086-2.5-1 1.602-2.387 2.602-5.054 3-8 2.944-1.088 5.944-1.088 9 0a29.77 29.77 0 0 0-2 7Z" style="opacity:1"/><path fill="#f56f23" d="M109.5 23.5c-.128-1.59-.795-2.923-2-4-1.673 1.586-3.673 2.253-6 2 1.504-2.336 3.504-4.169 6-5.5 8.536-3.106 16.036-1.606 22.5 4.5 1.009 1.525 1.509 3.192 1.5 5a12.988 12.988 0 0 0-5.5 1c-4.635-5.353-10.135-6.353-16.5-3Z" style="opacity:1"/><path fill="#f66d1f" d="M139.5 16.5h20c5.804 1.849 7.971 5.849 6.5 12-.2 1.82-1.034 3.153-2.5 4 .322-2.222-.345-4.056-2-5.5.949-.617 1.782-.45 2.5.5 1.976-6.357-.357-9.69-7-10-4.755 2.336-4.255 3.503 1.5 3.5 3.728 3.065 3.395 5.898-1 8.5 1.694-3.09 1.028-5.59-2-7.5a72.442 72.442 0 0 0-12-.5c-.667 0-1 .333-1 1-1.471-1.716-2.471-3.716-3-6Z" style="opacity:1"/><path fill="#5874ec" d="M317.5 22.5c-3.213-1.202-6.046-2.869-8.5-5l-2.5.5c1.66 1.488 2.66 3.321 3 5.5-3.8-1.643-7.8-2.31-12-2a345.429 345.429 0 0 1 8-2l-.5-1-9 2-2-2c-.741 1.14-1.575 1.14-2.5 0a13.115 13.115 0 0 0-1 7 151.202 151.202 0 0 0 1 24c-1.978-10.95-2.644-22.284-2-34 6.675-.166 13.342 0 20 .5 3.731 1.01 6.398 3.177 8 6.5Z" style="opacity:1"/><path fill="#fd6712" d="M30.5 20.5c-1.214 4.203-2.88 7.536-5 10-.762-.768-1.762-1.268-3-1.5 1.473-.71 2.14-1.876 2-3.5h-3c.255-2.467 1.255-4.467 3-6 .996-.086 1.83.248 2.5 1 1.393-2.625 2.56-2.625 3.5 0Z" style="opacity:1"/><path fill="#e87332" d="M235.5 31.5c.977 2.787 1.31 5.787 1 9v8h4v-32h-6c-3.443 3.525-4.61 7.858-3.5 13l1 1a8.43 8.43 0 0 0 .5-4c1.291-.237 2.291.096 3 1l-5 12v-9h-3a248.41 248.41 0 0 0 4-15h11v34h-7v-18Z" style="opacity:1"/><path fill="#fe6710" d="M234.5 16.5h6v32h-4v-8c1.905-1.549 2.239-3.382 1-5.5 1.074-.739 1.741-1.739 2-3-.505-5.356-2.172-10.523-5-15.5Z" style="opacity:1"/><path fill="#516ffb" d="M253.5 16.5c2.858-.472 4.858.528 6 3-.277 2.948.056 5.78 1 8.5-1.519-.33-2.852-.164-4 .5h-1c-.617.11-1.117.444-1.5 1a328.287 328.287 0 0 1-.5-13Z" style="opacity:.841"/><path fill="#5271f7" d="M297.5 21.5v22c-.973 1.291-1.973 1.291-3 0l-1-4.5a216.502 216.502 0 0 0 3-9.5h-3v-4h-3a13.115 13.115 0 0 1 1-7c.925 1.14 1.759 1.14 2.5 0l2 2 9-2 .5 1a345.429 345.429 0 0 0-8 2Z" style="opacity:1"/><path fill="#fc6915" d="M234.5 16.5c2.828 4.977 4.495 10.144 5 15.5-.259 1.261-.926 2.261-2 3 1.239 2.118.905 3.951-1 5.5.31-3.213-.023-6.213-1-9v-4c-.709-.904-1.709-1.237-3-1a8.43 8.43 0 0 1-.5 4l-1-1c-1.11-5.142.057-9.475 3.5-13Z" style="opacity:1"/><path fill="#5873f0" d="M387.5 19.5a53.606 53.606 0 0 1-7 12c-.172-1.992.495-3.659 2-5-.457-.797-1.124-1.13-2-1-.929-5.723 1.404-8.723 7-9v3Z" style="opacity:1"/><path fill="#fe6611" d="M51.5 19.5c.854 2.426-.146 4.26-3 5.5.457.414.79.914 1 1.5-1.216.596-2.55.763-4 .5 1.052 1.716.386 2.716-2 3 1.016.52 1.682 1.353 2 2.5a19.099 19.099 0 0 1-3 5h-3a71.771 71.771 0 0 0-1-11h5l-2-6c2.776-1.533 4.61-3.866 5.5-7 1.299.59 2.132 1.59 2.5 3-.946 1.758-.946 3.424 0 5a30.943 30.943 0 0 1 2-2Z" style="opacity:1"/><path fill="#fd6613" d="M75.5 13.5c-1.3 1.327-2.633 2.66-4 4a6.845 6.845 0 0 1 1 4v2a8.434 8.434 0 0 0-4 .5 78.82 78.82 0 0 1-6 8.5c-.886-.825-1.219-1.825-1-3a78.66 78.66 0 0 1 7-8.5 3.943 3.943 0 0 1-1-2 68.47 68.47 0 0 1 3-9.5c1.929-.27 3.595.23 5 1.5-2.342 1.392-2.342 2.225 0 2.5Z" style="opacity:1"/><path fill="#fd670f" d="M72.5 23.5v4c-1.175-.219-2.175.114-3 1a54.53 54.53 0 0 1-3.5 8c-1.29-2.574-3.122-3.241-5.5-2a41.58 41.58 0 0 1-1-8c0-.667.333-1 1-1-.268 1.599.066 2.932 1 4-.219 1.175.114 2.175 1 3a78.82 78.82 0 0 0 6-8.5 8.434 8.434 0 0 1 4-.5Z" style="opacity:1"/><path fill="#eb7a36" d="M180.5 41.5c-1.604-.787-2.271-2.12-2-4v-21h-6v26c-.993-8.818-1.327-17.818-1-27h8c-.275 8.72.058 17.387 1 26Z" style="opacity:.294"/><path fill="#fc6810" d="M178.5 37.5c-.876.13-1.543-.203-2-1 1.09-1.109 1.09-2.109 0-3-1.122 1.13-2.456 1.797-4 2v-19h6v21Z" style="opacity:1"/><path fill="#ef7631" d="M200.5 41.5v-25h-6c.166 8.007 0 16.007-.5 24l-1.5 3h-2a16.578 16.578 0 0 0 2.5-4c.5-7.993.666-15.993.5-24h8c.326 8.85-.007 17.516-1 26Z" style="opacity:.918"/><path fill="#5773f0" d="M350.5 32.5c-2.873-4.555-5.206-9.555-7-15-2.265-1.147-4.598-1.314-7-.5 2.416 1.425 3.749 3.592 4 6.5a63.305 63.305 0 0 0-4 8c-.934 1.068-1.268 2.401-1 4-1.325-1.453-2.158-1.12-2.5 1l-1.5-1.5c3.162-4.814 2.496-5.98-2-3.5l5-16c3.606-.29 7.106.044 10.5 1a156.479 156.479 0 0 1 5.5 16Z" style="opacity:.988"/><path fill="#fd6611" d="M163.5 32.5a101.709 101.709 0 0 0-10 3c.131-.876-.202-1.543-1-2-.886.825-1.219 1.825-1 3a9.864 9.864 0 0 1-6-1l1-2 10-2c.363-.683.696-1.35 1-2 4.395-2.602 4.728-5.435 1-8.5-5.755.003-6.255-1.164-1.5-3.5 6.643.31 8.976 3.643 7 10-.718-.95-1.551-1.117-2.5-.5 1.655 1.444 2.322 3.278 2 5.5Z" style="opacity:1"/><path fill="#5872e6" d="M270.5 43.5c.268-2.62-.065-5.12-1-7.5a4.932 4.932 0 0 1 3-.5c.375-2.897-.125-5.563-1.5-8-.122 1.937-.955 3.27-2.5 4l4-16h11v34h-7c.166-7.34 0-14.674-.5-22a443.537 443.537 0 0 1-5.5 16Z" style="opacity:1"/><path fill="#5270fd" d="M290.5 25.5h3v4h3a216.502 216.502 0 0 1-3 9.5l1 4.5c1.027 1.291 2.027 1.291 3 0 .342.838 1.008 1.172 2 1 .131.876-.202 1.543-1 2-2.82-1.209-4.487-.209-5 3h-2a151.202 151.202 0 0 1-1-24Z" style="opacity:1"/><path fill="#fd6917" d="M109.5 23.5c.172.992-.162 1.658-1 2a95.993 95.993 0 0 1-7 11c-1.069-4.656-1.069-9.322 0-14v-1c2.327.253 4.327-.414 6-2 1.205 1.077 1.872 2.41 2 4Z" style="opacity:1"/><path fill="#eb742b" d="M33.5 20.5a214.856 214.856 0 0 1-10 17c-.51-2.888.157-5.221 2-7 2.12-2.464 3.786-5.797 5-10 .702-.616 1.702-.616 3 0Z" style="opacity:1"/><path fill="#fc6712" d="M139.5 16.5c.529 2.284 1.529 4.284 3 6 .289 3.606-.044 7.106-1 10.5a4.451 4.451 0 0 1 2 1.5 40.261 40.261 0 0 0-4 4.5c.948.483 1.948.65 3 .5v9h-6v-32h3Z" style="opacity:1"/><path fill="#5370f7" d="M350.5 32.5c.61.891.943 1.891 1 3a51.56 51.56 0 0 0 1 7h-3c-.044 2.98-.377 3.314-1 1 .318-1.147.984-1.98 2-2.5-.383-2.124-1.883-3.957-4.5-5.5-1.269 1.405-1.769 3.071-1.5 5h-5a4.934 4.934 0 0 1 .5-3c1.785.854 2.951.187 3.5-2v-1a102.898 102.898 0 0 1-3-11c-.251-2.908-1.584-5.075-4-6.5 2.402-.814 4.735-.647 7 .5 1.794 5.445 4.127 10.445 7 15Z" style="opacity:1"/><path fill="#fd6611" d="M21.5 25.5h3c.14 1.624-.527 2.79-2 3.5 1.238.232 2.238.732 3 1.5-1.843 1.779-2.51 4.112-2 7-3.064.356-5.73-.477-8-2.5a71.705 71.705 0 0 1 6-9.5Z" style="opacity:1"/><path fill="#f1732b" d="M57.5 14.5a249.673 249.673 0 0 1-15 26v-3a19.099 19.099 0 0 0 3-5c-.318-1.147-.984-1.98-2-2.5 2.386-.284 3.052-1.284 2-3 1.45.263 2.784.096 4-.5a3.646 3.646 0 0 0-1-1.5c2.854-1.24 3.854-3.074 3-5.5 2.01-.99 4.01-2.657 6-5Z" style="opacity:1"/><path fill="#5973ea" d="M259.5 19.5a284.995 284.995 0 0 1 6 18c-2.328-1.236-3.494-3.236-3.5-6l-1 2a50.358 50.358 0 0 0 1.5 14c-2.774-5.993-4.774-12.327-6-19 1.148-.664 2.481-.83 4-.5-.944-2.72-1.277-5.552-1-8.5Z" style="opacity:.994"/><path fill="#5170fc" d="M317.5 22.5a105.28 105.28 0 0 1 1 17c-1.322-.17-2.489.163-3.5 1-1.158-.498-1.991-1.331-2.5-2.5 2.559-4.64 2.226-9.14-1-13.5-.457-.797-1.124-1.13-2-1-.34-2.179-1.34-4.012-3-5.5l2.5-.5c2.454 2.131 5.287 3.798 8.5 5Z" style="opacity:1"/><path fill="#ec7a36" d="M159.5 16.5h-23v32h6v-9c-.172-.992.162-1.658 1-2v12h-8v-34c8.184-.326 16.184.008 24 1Z" style="opacity:.18"/><path fill="#5070fa" d="M253.5 16.5c.074 4.163.241 8.497.5 13 .383-.556.883-.89 1.5-1v3c-.989 5.475-1.322 11.142-1 17h-5v-32h4Z" style="opacity:.999"/><path fill="#5773ee" d="M387.5 19.5v-3c-5.596.277-7.929 3.277-7 9-1.208.734-2.541 1.067-4 1-.11 3.5-.943 6.834-2.5 10-1.065-1.896-1.898-2.063-2.5-.5a64.993 64.993 0 0 0 2 7c-.923 2.04-1.256 4.208-1 6.5-1.78-4.227-2.614-8.894-2.5-14l-11.5-19c2.606-1.152 5.273-1.318 8-.5a235.117 235.117 0 0 1 7.5 12.5 78.663 78.663 0 0 0 7.5-12.5c3-.667 6-.667 9 0a30.217 30.217 0 0 0-3 3.5Z" style="opacity:1"/><path fill="#f57021" d="M143.5 21.5v9c4.73.217 9.397-.117 14-1-.304.65-.637 1.317-1 2l-10 2-1 2a9.864 9.864 0 0 0 6 1c-.219-1.175.114-2.175 1-3 .798.457 1.131 1.124 1 2v4c-3.005-1.8-6.338-2.466-10-2-.838.342-1.172 1.008-1 2a4.932 4.932 0 0 1-3-.5 40.261 40.261 0 0 1 4-4.5 4.451 4.451 0 0 0-2-1.5c.956-3.394 1.289-6.894 1-10.5 0-.667.333-1 1-1Z" style="opacity:1"/><path fill="#f67028" d="M72.5 21.5h4a108.426 108.426 0 0 1-12 21c.16-1.7-.007-3.366-.5-5l-1 2c-1.883-1.153-2.716-2.82-2.5-5 2.378-1.241 4.21-.574 5.5 2a54.53 54.53 0 0 0 3.5-8c.825-.886 1.825-1.219 3-1v-6Z" style="opacity:1"/><path fill="#5472f7" d="M380.5 25.5c.876-.13 1.543.203 2 1-1.505 1.341-2.172 3.008-2 5 .073 1.527-.594 2.527-2 3a645.868 645.868 0 0 0-2 15h-4c-.256-2.292.077-4.46 1-6.5a64.993 64.993 0 0 1-2-7c.602-1.563 1.435-1.396 2.5.5a24.132 24.132 0 0 0 2.5-10c1.459.067 2.792-.266 4-1Z" style="opacity:1"/><path fill="#f66d1c" d="m41.5 20.5 2 6h-5c.62 3.695.954 7.362 1 11h3v3c-.85 2.382-2.184 4.382-4 6 .277-2.947-.056-5.78-1-8.5a9.468 9.468 0 0 1-2.5-1.5c-1.129 1.641-2.629 2.641-4.5 3a170.814 170.814 0 0 1 11-19Z" style="opacity:1"/><path fill="#f96b1a" d="M59.5 26.5a41.58 41.58 0 0 0 1 8c-.216 2.18.617 3.847 2.5 5l1-2c.493 1.634.66 3.3.5 5a49.726 49.726 0 0 1-6 10 64.953 64.953 0 0 1-5 2.5c1.017 1.05 1.184 2.216.5 3.5l-1-1a6.807 6.807 0 0 1-1.5 3c-5.541-3.184-6.875-7.517-4-13 .25-2.174 1.25-3.84 3-5a93.663 93.663 0 0 1 9-16Z" style="opacity:1"/><path fill="#f66c1f" d="M178.5 37.5c-.271 1.88.396 3.213 2 4 2.662 1.768 5.662 2.435 9 2-4.241 1.318-8.574 1.152-13-.5 1.231-1.183 1.231-2.35 0-3.5a10.777 10.777 0 0 0-2 6c-1.406-.473-2.073-1.473-2-3v-7c1.544-.203 2.878-.87 4-2 1.09.891 1.09 1.891 0 3 .457.797 1.124 1.13 2 1Z" style="opacity:1"/><path fill="#afb3f4" d="M336.5 31.5v3h7v1h-8c-.268-1.599.066-2.932 1-4Z" style="opacity:.016"/><path fill="#f46f25" d="M27.5 11.5c-.398 2.946-1.398 5.613-3 8-1.745 1.533-2.745 3.533-3 6a71.705 71.705 0 0 0-6 9.5c2.27 2.023 4.936 2.856 8 2.5a139.602 139.602 0 0 1-10 18c-2.918 1.213-5.585.88-8-1h3c1.208.734 2.541 1.067 4 1 .17-1.322-.163-2.489-1-3.5 2.254-1.054 2.587-2.554 1-4.5.787-3.83 2.787-4.83 6-3a8.434 8.434 0 0 0-.5-4c-1.356.88-2.856 1.214-4.5 1a4.932 4.932 0 0 0-.5-3c-.417 1.256-1.25 1.923-2.5 2a208.841 208.841 0 0 1 17-29Z" style="opacity:1"/><path fill="#f37227" d="M101.5 22.5c-1.069 4.678-1.069 9.344 0 14a95.993 95.993 0 0 0 7-11c-1.333 4.667-1.333 9.333 0 14h-5a8.43 8.43 0 0 0 .5 4c5.299 4.91 11.465 6.244 18.5 4a4.458 4.458 0 0 1 1.5-2c.893 1.211 1.726 1.211 2.5 0a3.647 3.647 0 0 0-1-1.5 12.935 12.935 0 0 1 5-.5c-4.814 6.217-11.147 8.383-19 6.5-6.088-1.09-9.921-4.59-11.5-10.5-.667-5-.667-10 0-15 .278-.916.778-1.582 1.5-2Z" style="opacity:1"/><path fill="#f66e21" d="M163.5 32.5c-1.074 1.385-2.407 2.551-4 3.5 2.864 4.033 5.531 8.2 8 12.5-2.946 1.155-5.946 1.321-9 .5a70.823 70.823 0 0 1-5-9.5v-4a101.709 101.709 0 0 1 10-3Z" style="opacity:1"/><path fill="#556ede" d="M259.5 19.5c-1.142-2.472-3.142-3.472-6-3h-4v32h5c-.322-5.858.011-11.525 1-17v18h-7v-34c3.35-.165 6.683.002 10 .5.837 1.011 1.17 2.178 1 3.5Z" style="opacity:.937"/><path fill="#5170f9" d="M274.5 16.5h8v32h-5c.315-7.92-.018-15.753-1-23.5l2-4c-2.251-.747-3.584-2.247-4-4.5Z" style="opacity:1"/><path fill="#f96a19" d="M221.5 29.5c1.433 2.782 2.6 5.782 3.5 9a37.283 37.283 0 0 1 2.5-8h3v10c-2.192 2.205-3.526 4.871-4 8h-4c.318-2.981-.682-5.315-3-7-.934-1.068-1.268-2.401-1-4-.289-3.15.211-6.15 1.5-9 .383.556.883.89 1.5 1Z" style="opacity:1"/><path fill="#4f70f9" d="M270.5 43.5c-1.756 1.052-2.423 2.719-2 5-2.121.175-4.121-.159-6-1a50.358 50.358 0 0 1-1.5-14l1-2c.006 2.764 1.172 4.764 3.5 6 .976-1.404 1.976-3.404 3-6 1.545-.73 2.378-2.063 2.5-4 1.375 2.437 1.875 5.103 1.5 8a4.932 4.932 0 0 0-3 .5c.935 2.38 1.268 4.88 1 7.5Z" style="opacity:1"/><path fill="#fd660f" d="M50.5 42.5c1.966-1.92 3.966-3.92 6-6a8.19 8.19 0 0 0 4 2.5 17.61 17.61 0 0 0-5 5 7.291 7.291 0 0 0 3 2l-2 3c-2.056.31-4.056.81-6 1.5-1.783-.848-2.283-2.181-1.5-4 .718.95 1.55 1.117 2.5.5-.88-1.356-1.214-2.856-1-4.5Z" style="opacity:1"/><path fill="#ed7732" d="M130.5 43.5c.042-2.349-1.125-3.682-3.5-4a23.938 23.938 0 0 0-4.5 4.5c-4.655.5-9.321.666-14 .5v-5c3.867 4.242 8.534 5.075 14 2.5 2.271-5.249 5.604-5.915 10-2a19.588 19.588 0 0 1-2 3.5Z" style="opacity:1"/><path fill="#ee732c" d="M221.5 29.5c-.617-.11-1.117-.444-1.5-1-1.289 2.85-1.789 5.85-1.5 9-1.433-2.782-2.6-5.782-3.5-9-.5 6.992-.666 13.992-.5 21h-7v-34c3.35-.165 6.683.002 10 .5a45.034 45.034 0 0 1 4 13.5Z" style="opacity:.999"/><path fill="#fd6812" d="M208.5 18.5c.996-.086 1.829.248 2.5 1a14.72 14.72 0 0 0 1.5 5 6.802 6.802 0 0 0 1.5-3c1.036 1.799 1.203 3.466.5 5-.722.418-1.222 1.084-1.5 2-.5 6.658-.666 13.325-.5 20h-4v-30Z" style="opacity:1"/><path fill="#fd6611" d="M214.5 26.5c.703-1.534.536-3.201-.5-5a6.802 6.802 0 0 1-1.5 3 14.72 14.72 0 0 1-1.5-5c-.671-.752-1.504-1.086-2.5-1 2.135-1.869 4.802-2.536 8-2a29.303 29.303 0 0 0 2 6.5l-1.5 7.5c-.122-1.937-.955-3.27-2.5-4Z" style="opacity:1"/><path fill="#5a73eb" d="M317.5 22.5c4.285 7.858 3.785 15.524-1.5 23-1.87 1.719-4.037 2.719-6.5 3v-3l-10-1c-.992.172-1.658-.162-2-1 8.914 1.397 13.914-2.27 15-11a23.95 23.95 0 0 0-3-9c.876-.13 1.543.203 2 1 3.226 4.36 3.559 8.86 1 13.5.509 1.169 1.342 2.002 2.5 2.5 1.011-.837 2.178-1.17 3.5-1a105.28 105.28 0 0 0-1-17Z" style="opacity:1"/><path fill="#6275c6" d="M378.5 34.5c.608 5.444-.058 10.444-2 15a645.868 645.868 0 0 1 2-15Z" style="opacity:.227"/><path fill="#fd6611" d="M108.5 39.5v5c4.679.166 9.345 0 14-.5a23.938 23.938 0 0 1 4.5-4.5c2.375.318 3.542 1.651 3.5 4a12.935 12.935 0 0 0-5 .5c.457.414.791.914 1 1.5-.774 1.211-1.607 1.211-2.5 0a4.458 4.458 0 0 0-1.5 2c-7.035 2.244-13.201.91-18.5-4a8.43 8.43 0 0 1-.5-4h5Z" style="opacity:1"/><path fill="#fe650e" d="M8.5 54.5a30.958 30.958 0 0 1 2-2c-.902-3.959-.902-7.959 0-12 1.25-.077 2.083-.744 2.5-2 .483.948.65 1.948.5 3 1.644.214 3.144-.12 4.5-1a8.434 8.434 0 0 1 .5 4c-3.213-1.83-5.213-.83-6 3 1.587 1.946 1.254 3.446-1 4.5.837 1.011 1.17 2.178 1 3.5-1.459.067-2.792-.266-4-1Z" style="opacity:1"/><path fill="#fa6816" d="M38.5 46.5a27.384 27.384 0 0 1-4 8c-3.364.71-5.697-.456-7-3.5 1.244-.456 2.077.044 2.5 1.5.595-1.399.428-2.732-.5-4 1.503-.335 2.836-.335 4 0-1.551-2.859-2.551-5.859-3-9 1.871-.359 3.371-1.359 4.5-3a9.468 9.468 0 0 0 2.5 1.5c.944 2.72 1.277 5.553 1 8.5Z" style="opacity:1"/><path fill="#fb6916" d="M200.5 25.5v16c-.122 2.792-1.456 4.792-4 6-7.615 1.825-14.948 1.159-22-2a10.777 10.777 0 0 1 2-6c1.231 1.15 1.231 2.317 0 3.5 4.426 1.652 8.759 1.818 13 .5h3c1.946.699 3.946.365 6-1-.979-1.779-.646-3.445 1-5l-2-5a81.85 81.85 0 0 0 3-7Z" style="opacity:1"/><path fill="#5572f1" d="M335.5 35.5h8c-.549 2.187-1.715 2.854-3.5 2a4.934 4.934 0 0 0-.5 3h5c-.269-1.929.231-3.595 1.5-5 2.617 1.543 4.117 3.376 4.5 5.5-1.016.52-1.682 1.353-2 2.5.623 2.314.956 1.98 1-1h3a51.56 51.56 0 0 1-1-7 146.674 146.674 0 0 1 5 13c-6.748 2.486-10.081.153-10-7a43.123 43.123 0 0 0-13 1 21.029 21.029 0 0 0-2 7 40.939 40.939 0 0 1-9-.5 617.21 617.21 0 0 0 7-17.5c4.496-2.48 5.162-1.314 2 3.5l1.5 1.5c.342-2.12 1.175-2.453 2.5-1Z" style="opacity:.992"/><path fill="#f56d21" d="M10.5 40.5c-.902 4.041-.902 8.041 0 12a30.958 30.958 0 0 0-2 2h-3c-1.175.219-2.175-.114-3-1 1.94-4.9 4.607-9.233 8-13Z" style="opacity:1"/><path fill="#5072f8" d="m299.5 44.5 10 1v3c-5.14.988-10.474 1.321-16 1 .513-3.209 2.18-4.209 5-3 .798-.457 1.131-1.124 1-2Z" style="opacity:.996"/><path fill="#e87736" d="M174.5 45.5c7.052 3.159 14.385 3.825 22 2-5.634 3.328-11.634 3.828-18 1.5-1.824-.66-3.157-1.827-4-3.5Z" style="opacity:1"/><path fill="#e57738" d="m230.5 40.5-2 9c-6.407 1.194-9.407-1.472-9-8 2.318 1.685 3.318 4.019 3 7h4c.474-3.129 1.808-5.795 4-8Z" style="opacity:1"/><path fill="#607bdf" d="m270.5 43.5-1 6c-2.888.51-5.221-.157-7-2 1.879.841 3.879 1.175 6 1-.423-2.281.244-3.948 2-5Z" style="opacity:.98"/><path fill="#f46f22" d="M30.5 39.5c.449 3.141 1.449 6.141 3 9-1.164-.335-2.497-.335-4 0 .928 1.268 1.095 2.601.5 4-.423-1.456-1.256-1.956-2.5-1.5 1.303 3.044 3.636 4.21 7 3.5-.366 1.195-1.199 1.861-2.5 2-3.61-.75-6.777-2.25-9.5-4.5 2.12-4.6 4.787-8.766 8-12.5Z" style="opacity:1"/><path fill="#f4722a" d="M47.5 47.5c-2.875 5.483-1.541 9.816 4 13a6.807 6.807 0 0 0 1.5-3l1 1c.684-1.284.517-2.45-.5-3.5a64.953 64.953 0 0 0 5-2.5c-3.162 10.375-8.829 11.875-17 4.5a45.684 45.684 0 0 1 6-9.5Z" style="opacity:1"/></svg>